<svg xmlns="http://www.w3.org/2000/svg" xmlns:xlink="http://www.w3.org/1999/xlink" width="1040" height="711.3"><rect width="1040" height="711.3" rx="5" ry="5" class="a"/><svg y="0%" x="0%"><circle cx="20" cy="20" r="6" fill="#ff5f58"/><circle cx="40" cy="20" r="6" fill="#ffbd2e"/><circle cx="60" cy="20" r="6" fill="#18c132"/></svg><svg height="651.3" viewBox="0 0 100 65.13" width="1000" x="15" xmlns="http://www.w3.org/2000/svg" xmlns:xlink="http://www.w3.org/1999/xlink" y="50"><style>@keyframes i{0%{transform:translateX(0)}.1%{transform:translateX(-100px)}5.8%{transform:translateX(-200px)}17.3%{transform:translateX(-300px)}29.3%{transform:translateX(-5000px)}52.4%{transform:translateX(-5100px)}64.5%{transform:translateX(-5500px)}87.5%{transform:translateX(-5700px)}to{transform:translateX(-5900px)}}.a{fill:#282d35}.f{fill:#b9c0cb;white-space:pre}</style><g font-family="Monaco,Consolas,Menlo,'Bitstream Vera Sans Mono','Powerline Symbols',monospace" font-size="1.67"><defs><symbol id="1"><text y="1.67" class="f">$</text><text x="2.004" y="1.67" class="f">#</text><text x="4.008" y="1.67" class="f">Narrative</text><text x="14.028" y="1.67" class="f">Rotation</text><text x="23.046" y="1.67" class="f">Index</text><text x="29.058" y="1.67" class="f">—</text><text x="31.062" y="1.67" class="f">30-second</text><text x="41.082" y="1.67" class="f">demo</text></symbol><symbol id="2"><text y="1.67" class="f">$</text><text x="2.004" y="1.67" class="f">python</text><text x="9.018" y="1.67" class="f">compare_regime_scenarios.py</text><text x="37.074" y="1.67" class="f">|</text><text x="39.078" y="1.67" class="f">head</text><text x="44.088" y="1.67" class="f">-25</text></symbol><symbol id="3"><text y="1.67" class="f">================================================================================</text></symbol><symbol id="4"><text y="1.67" class="f">NARRATIVE</text><text x="10.02" y="1.67" class="f">ROTATION</text><text x="19.038" y="1.67" class="f">INDEX</text><text x="25.05" y="1.67" class="f">-</text><text x="27.054" y="1.67" class="f">REGIME</text><text x="34.068" y="1.67" class="f">SCENARIO</text><text x="43.086" y="1.67" class="f">COMPARISON</text></symbol><symbol id="5"><text y="1.67" class="f">Shows</text><text x="6.012" y="1.67" class="f">how</text><text x="10.02" y="1.67" class="f">the</text><text x="14.028" y="1.67" class="f">same</text><text x="19.038" y="1.67" class="f">narrative</text><text x="29.058" y="1.67" class="f">scores</text><text x="36.072" y="1.67" class="f">differently</text><text x="48.096" y="1.67" class="f">across</text><text x="55.11" y="1.67" class="f">market</text><text x="62.124" y="1.67" class="f">regimes.</text></symbol><symbol id="6"><text y="1.67" class="f">Regime</text><text x="7.014" y="1.67" class="f">detection</text><text x="17.034" y="1.67" class="f">→</text><text x="19.038" y="1.67" class="f">conviction</text><text x="30.06" y="1.67" class="f">cap</text><text x="34.068" y="1.67" class="f">→</text><text x="36.072" y="1.67" class="f">position</text><text x="45.09" y="1.67" class="f">sizing</text><text x="52.104" y="1.67" class="f">→</text><text x="54.108" y="1.67" class="f">execution</text><text x="64.128" y="1.67" class="f">signal.</text></symbol><symbol id="7"><text y="1.67" class="f">Uses</text><text x="5.01" y="1.67" class="f">actual</text><text x="12.024" y="1.67" class="f">scoring</text><text x="20.04" y="1.67" class="f">pipeline</text><text x="29.058" y="1.67" class="f">from</text><text x="34.068" y="1.67" class="f">backtest.py</text><text x="46.092" y="1.67" class="f">(5-bucket</text><text x="56.112" y="1.67" class="f">weighted).</text></symbol><symbol id="8"><text y="1.67" class="f">Regime</text><text x="16.032" y="1.67" class="f">Conviction</text><text x="29.058" y="1.67" class="f">Cap</text><text x="38.076" y="1.67" class="f">Verdict</text><text x="54.108" y="1.67" class="f">Position</text><text x="67.134" y="1.67" class="f">Signal</text></symbol><symbol id="9"><text y="1.67" class="f">--------------------------------------------------------------------------------</text></symbol><symbol id="10"><text y="1.67" class="f">RISK_ON</text><text x="16.032" y="1.67" class="f">79</text><text x="29.058" y="1.67" class="f">100</text><text x="38.076" y="1.67" class="f">STRONG_LONG</text><text x="54.108" y="1.67" class="f">5.0%</text><text x="65.13" y="1.67" class="f">✅</text><text x="67.134" y="1.67" class="f">CONCENTRATE</text></symbol><symbol id="11"><text y="1.67" class="f">TRANSITION</text><text x="16.032" y="1.67" class="f">65</text><text x="29.058" y="1.67" class="f">75</text><text x="38.076" y="1.67" class="f">STRONG_LONG</text><text x="54.108" y="1.67" class="f">3.0%</text><text x="65.13" y="1.67" class="f">✅</text><text x="67.134" y="1.67" class="f">CONCENTRATE</text></symbol><symbol id="12"><text y="1.67" class="f">RISK_OFF</text><text x="16.032" y="1.67" class="f">30</text><text x="29.058" y="1.67" class="f">50</text><text x="38.076" y="1.67" class="f">NEUTRAL</text><text x="54.108" y="1.67" class="f">1.5%</text><text x="65.13" y="1.67" class="f">⚖️</text><text x="69.138" y="1.67" class="f">NEUTRAL</text></symbol><symbol id="13"><text y="1.67" class="f">BUCKET</text><text x="7.014" y="1.67" class="f">SCORE</text><text x="13.026" y="1.67" class="f">BREAKDOWN</text><text x="23.046" y="1.67" class="f">(same</text><text x="29.058" y="1.67" class="f">data,</text><text x="35.07" y="1.67" class="f">different</text><text x="45.09" y="1.67" class="f">regimes)</text></symbol><symbol id="14"><text y="1.67" class="f">Momentum:</text><text x="14.028" y="1.67" class="f">70</text><text x="19.038" y="1.67" class="f">×</text><text x="21.042" y="1.67" class="f">0.30</text><text x="26.052" y="1.67" class="f">=</text><text x="28.056" y="1.67" class="f">21.0</text></symbol><symbol id="15"><text y="1.67" class="f">Liquidity:</text><text x="14.028" y="1.67" class="f">85</text><text x="19.038" y="1.67" class="f">×</text><text x="21.042" y="1.67" class="f">0.25</text><text x="26.052" y="1.67" class="f">=</text><text x="28.056" y="1.67" class="f">21.2</text></symbol><symbol id="16"><text y="1.67" class="f">Attention:</text><text x="14.028" y="1.67" class="f">70</text><text x="19.038" y="1.67" class="f">×</text><text x="21.042" y="1.67" class="f">0.20</text><text x="26.052" y="1.67" class="f">=</text><text x="28.056" y="1.67" class="f">14.0</text></symbol><symbol id="17"><text y="1.67" class="f">Fundamental:</text><text x="14.028" y="1.67" class="f">60</text><text x="19.038" y="1.67" class="f">×</text><text x="21.042" y="1.67" class="f">0.15</text><text x="26.052" y="1.67" class="f">=</text><text x="28.056" y="1.67" class="f">9.0</text></symbol><symbol id="18"><text y="1.67" class="f">Risk</text><text x="5.01" y="1.67" class="f">Adj:</text><text x="14.028" y="1.67" class="f">70</text><text x="19.038" y="1.67" class="f">×</text><text x="21.042" y="1.67" class="f">0.10</text><text x="26.052" y="1.67" class="f">=</text><text x="28.056" y="1.67" class="f">7.0</text></symbol><symbol id="19"><text y="1.67" class="f">───────────────────────────────────</text></symbol><symbol id="20"><text y="1.67" class="f">Weighted</text><text x="9.018" y="1.67" class="f">raw:</text><text x="14.028" y="1.67" class="f">72.2</text></symbol><symbol id="21"><text y="1.67" class="f">$</text><text x="2.004" y="1.67" class="f">python</text><text x="9.018" y="1.67" class="f">live_demo.py</text><text x="22.044" y="1.67" class="f">2&gt;&amp;1</text><text x="27.054" y="1.67" class="f">|</text><text x="29.058" y="1.67" class="f">tail</text><text x="34.068" y="1.67" class="f">-15</text></symbol><symbol id="22"><text y="1.67" class="f">Time:</text><text x="8.016" y="1.67" class="f">2026-06-06T10:26:12Z</text></symbol><symbol id="23"><text y="1.67" class="f">[Macro]</text><text x="8.016" y="1.67" class="f">Fear</text><text x="13.026" y="1.67" class="f">&amp;</text><text x="15.03" y="1.67" class="f">Greed:</text><text x="22.044" y="1.67" class="f">58/100</text><text x="30.06" y="1.67" class="f">|</text><text x="33.066" y="1.67" class="f">BTC</text><text x="37.074" y="1.67" class="f">dominance:</text><text x="48.096" y="1.67" class="f">51.3%</text><text x="55.11" y="1.67" class="f">|</text><text x="58.116" y="1.67" class="f">Total</text><text x="64.128" y="1.67" class="f">mcap</text><text x="69.138" y="1.67" class="f">24h:</text><text x="74.148" y="1.67" class="f">+4.00%</text></symbol><symbol id="24"><text y="1.67" class="f">[Regime]</text><text x="9.018" y="1.67" class="f">TRANSITION</text><text x="21.042" y="1.67" class="f">(cap:</text><text x="27.054" y="1.67" class="f">75/100)</text></symbol><symbol id="25"><text x="9.018" y="1.67" class="f">Mixed</text><text x="15.03" y="1.67" class="f">signals:</text><text x="24.048" y="1.67" class="f">regime</text><text x="31.062" y="1.67" class="f">unclear,</text><text x="40.08" y="1.67" class="f">reduced</text><text x="48.096" y="1.67" class="f">position</text><text x="57.114" y="1.67" class="f">sizing.</text></symbol><symbol id="26"><text x="2.004" y="1.67" class="f">Narrative</text><text x="17.034" y="1.67" class="f">|</text><text x="19.038" y="1.67" class="f">Verdict</text><text x="32.064" y="1.67" class="f">|</text><text x="35.07" y="1.67" class="f">Conv</text><text x="40.08" y="1.67" class="f">|</text><text x="43.086" y="1.67" class="f">EXH</text><text x="47.094" y="1.67" class="f">|</text><text x="49.098" y="1.67" class="f">MOM</text><text x="53.106" y="1.67" class="f">LIQ</text><text x="57.114" y="1.67" class="f">ATT</text><text x="61.122" y="1.67" class="f">FND</text><text x="65.13" y="1.67" class="f">RSK</text><text x="69.138" y="1.67" class="f">|</text><text x="71.142" y="1.67" class="f">Exec</text></symbol><symbol id="27"><text x="2.004" y="1.67" class="f">------------------------------------------------------------------------------------------</text></symbol><symbol id="28"><text x="2.004" y="1.67" class="f">AI</text><text x="5.01" y="1.67" class="f">Tokens</text><text x="17.034" y="1.67" class="f">|</text><text x="19.038" y="1.67" class="f">LONG</text><text x="32.064" y="1.67" class="f">|</text><text x="37.074" y="1.67" class="f">53</text><text x="40.08" y="1.67" class="f">|</text><text x="45.09" y="1.67" class="f">0</text><text x="47.094" y="1.67" class="f">|</text><text x="50.1" y="1.67" class="f">70</text><text x="54.108" y="1.67" class="f">60</text><text x="58.116" y="1.67" class="f">20</text><text x="62.124" y="1.67" class="f">75</text><text x="66.132" y="1.67" class="f">85</text><text x="69.138" y="1.67" class="f">|</text><text x="71.142" y="1.67" class="f">✓</text></symbol><symbol id="29"><text x="2.004" y="1.67" class="f">RWA</text><text x="17.034" y="1.67" class="f">|</text><text x="19.038" y="1.67" class="f">LONG</text><text x="32.064" y="1.67" class="f">|</text><text x="37.074" y="1.67" class="f">47</text><text x="40.08" y="1.67" class="f">|</text><text x="45.09" y="1.67" class="f">0</text><text x="47.094" y="1.67" class="f">|</text><text x="50.1" y="1.67" class="f">70</text><text x="54.108" y="1.67" class="f">40</text><text x="58.116" y="1.67" class="f">15</text><text x="62.124" y="1.67" class="f">60</text><text x="65.13" y="1.67" class="f">100</text><text x="69.138" y="1.67" class="f">|</text><text x="71.142" y="1.67" class="f">✓</text></symbol><symbol id="30"><text x="2.004" y="1.67" class="f">DePIN</text><text x="17.034" y="1.67" class="f">|</text><text x="19.038" y="1.67" class="f">LONG</text><text x="32.064" y="1.67" class="f">|</text><text x="37.074" y="1.67" class="f">45</text><text x="40.08" y="1.67" class="f">|</text><text x="45.09" y="1.67" class="f">0</text><text x="47.094" y="1.67" class="f">|</text><text x="50.1" y="1.67" class="f">70</text><text x="54.108" y="1.67" class="f">40</text><text x="59.118" y="1.67" class="f">0</text><text x="62.124" y="1.67" class="f">60</text><text x="65.13" y="1.67" class="f">100</text><text x="69.138" y="1.67" class="f">|</text><text x="71.142" y="1.67" class="f">✓</text></symbol><symbol id="31"><text x="2.004" y="1.67" class="f">Meme</text><text x="17.034" y="1.67" class="f">|</text><text x="19.038" y="1.67" class="f">STRONG_LONG</text><text x="32.064" y="1.67" class="f">|</text><text x="37.074" y="1.67" class="f">65</text><text x="40.08" y="1.67" class="f">|</text><text x="44.088" y="1.67" class="f">25</text><text x="47.094" y="1.67" class="f">|</text><text x="50.1" y="1.67" class="f">70</text><text x="54.108" y="1.67" class="f">85</text><text x="58.116" y="1.67" class="f">70</text><text x="62.124" y="1.67" class="f">60</text><text x="66.132" y="1.67" class="f">70</text><text x="69.138" y="1.67" class="f">|</text><text x="71.142" y="1.67" class="f">✓</text></symbol><symbol id="32"><text x="2.004" y="1.67" class="f">Privacy</text><text x="17.034" y="1.67" class="f">|</text><text x="19.038" y="1.67" class="f">LONG</text><text x="32.064" y="1.67" class="f">|</text><text x="37.074" y="1.67" class="f">45</text><text x="40.08" y="1.67" class="f">|</text><text x="45.09" y="1.67" class="f">0</text><text x="47.094" y="1.67" class="f">|</text><text x="50.1" y="1.67" class="f">80</text><text x="54.108" y="1.67" class="f">30</text><text x="59.118" y="1.67" class="f">0</text><text x="62.124" y="1.67" class="f">60</text><text x="65.13" y="1.67" class="f">100</text><text x="69.138" y="1.67" class="f">|</text><text x="71.142" y="1.67" class="f">✓</text></symbol><symbol id="33"><text y="1.67" class="f">$</text><text x="2.004" y="1.67" class="f">python</text><text x="9.018" y="1.67" class="f">-m</text><text x="12.024" y="1.67" class="f">unittest</text><text x="21.042" y="1.67" class="f">tests.test_backtest</text><text x="41.082" y="1.67" class="f">2&gt;&amp;1</text><text x="46.092" y="1.67" class="f">|</text><text x="48.096" y="1.67" class="f">tail</text><text x="53.106" y="1.67" class="f">-5</text></symbol><symbol id="34"><text y="1.67" class="f">...............</text></symbol><symbol id="35"><text y="1.67" class="f">----------------------------------------------------------------------</text></symbol><symbol id="36"><text y="1.67" class="f">Ran</text><text x="4.008" y="1.67" class="f">15</text><text x="7.014" y="1.67" class="f">tests</text><text x="13.026" y="1.67" class="f">in</text><text x="16.032" y="1.67" class="f">0.041s</text></symbol><symbol id="37"><text y="1.67" class="f">OK</text></symbol><symbol id="a"><path fill="transparent" d="M0 0h100v31H0z"/></symbol><symbol id="b"><path fill="#6f7683" d="M0 0h1.102v2.171H0z"/></symbol></defs><path class="a" d="M0 0h100v65.13H0z"/><g style="animation-duration:8.719925s;animation-iteration-count:infinite;animation-name:i;animation-timing-function:steps(1,end)"><svg width="6000"><svg><use xlink:href="#a"/><use xlink:href="#b" x="-.004"/></svg><svg x="100"><use xlink:href="#a"/><use xlink:href="#b" x="-.004"/></svg><svg x="200"><use xlink:href="#a"/><use xlink:href="#b" x="-.004" y="2.146"/><use xlink:href="#1"/></svg><svg x="300"><use xlink:href="#a"/><use xlink:href="#b" x="-.004" y="4.317"/><use xlink:href="#1"/><use xlink:href="#2" y="2.171"/></svg><svg x="400"><use xlink:href="#a"/><use xlink:href="#b" x="79.996" y="4.317"/><use xlink:href="#1"/><use xlink:href="#2" y="2.171"/><use xlink:href="#3" y="4.342"/></svg><svg x="500"><use xlink:href="#a"/><use xlink:href="#b" x="-.004" y="6.488"/><use xlink:href="#1"/><use xlink:href="#2" y="2.171"/><use xlink:href="#3" y="4.342"/></svg><svg x="600"><use xlink:href="#a"/><use xlink:href="#b" x="52.996" y="6.488"/><use xlink:href="#1"/><use xlink:href="#2" y="2.171"/><use xlink:href="#3" y="4.342"/><use xlink:href="#4" y="6.513"/></svg><svg x="700"><use xlink:href="#a"/><use xlink:href="#b" x="-.004" y="8.659"/><use xlink:href="#1"/><use xlink:href="#2" y="2.171"/><use xlink:href="#3" y="4.342"/><use xlink:href="#4" y="6.513"/></svg><svg x="800"><use xlink:href="#a"/><use xlink:href="#b" x="79.996" y="8.659"/><use xlink:href="#1"/><use xlink:href="#2" y="2.171"/><use xlink:href="#3" y="4.342"/><use xlink:href="#4" y="6.513"/><use xlink:href="#3" y="8.684"/></svg><svg x="900"><use xlink:href="#a"/><use xlink:href="#b" x="-.004" y="10.83"/><use xlink:href="#1"/><use xlink:href="#2" y="2.171"/><use xlink:href="#3" y="4.342"/><use xlink:href="#4" y="6.513"/><use xlink:href="#3" y="8.684"/></svg><svg x="1000"><use xlink:href="#a"/><use xlink:href="#b" x="-.004" y="13.001"/><use xlink:href="#1"/><use xlink:href="#2" y="2.171"/><use xlink:href="#3" y="4.342"/><use xlink:href="#4" y="6.513"/><use xlink:href="#3" y="8.684"/></svg><svg x="1100"><use xlink:href="#a"/><use xlink:href="#b" x="69.996" y="13.001"/><use xlink:href="#1"/><use xlink:href="#2" y="2.171"/><use xlink:href="#3" y="4.342"/><use xlink:href="#4" y="6.513"/><use xlink:href="#3" y="8.684"/><use xlink:href="#5" y="13.026"/></svg><svg x="1200"><use xlink:href="#a"/><use xlink:href="#b" x="-.004" y="15.172"/><use xlink:href="#1"/><use xlink:href="#2" y="2.171"/><use xlink:href="#3" y="4.342"/><use xlink:href="#4" y="6.513"/><use xlink:href="#3" y="8.684"/><use xlink:href="#5" y="13.026"/></svg><svg x="1300"><use xlink:href="#a"/><use xlink:href="#b" x="70.996" y="15.172"/><use xlink:href="#1"/><use xlink:href="#2" y="2.171"/><use xlink:href="#3" y="4.342"/><use xlink:href="#4" y="6.513"/><use xlink:href="#3" y="8.684"/><use xlink:href="#5" y="13.026"/><use xlink:href="#6" y="15.197"/></svg><svg x="1400"><use xlink:href="#a"/><use xlink:href="#b" x="-.004" y="17.343"/><use xlink:href="#1"/><use xlink:href="#2" y="2.171"/><use xlink:href="#3" y="4.342"/><use xlink:href="#4" y="6.513"/><use xlink:href="#3" y="8.684"/><use xlink:href="#5" y="13.026"/><use xlink:href="#6" y="15.197"/></svg><svg x="1500"><use xlink:href="#a"/><use xlink:href="#b" x="65.996" y="17.343"/><use xlink:href="#1"/><use xlink:href="#2" y="2.171"/><use xlink:href="#3" y="4.342"/><use xlink:href="#4" y="6.513"/><use xlink:href="#3" y="8.684"/><use xlink:href="#5" y="13.026"/><use xlink:href="#6" y="15.197"/><use xlink:href="#7" y="17.368"/></svg><svg x="1600"><use xlink:href="#a"/><use xlink:href="#b" x="-.004" y="19.514"/><use xlink:href="#1"/><use xlink:href="#2" y="2.171"/><use xlink:href="#3" y="4.342"/><use xlink:href="#4" y="6.513"/><use xlink:href="#3" y="8.684"/><use xlink:href="#5" y="13.026"/><use xlink:href="#6" y="15.197"/><use xlink:href="#7" y="17.368"/></svg><svg x="1700"><use xlink:href="#a"/><use xlink:href="#b" x="-.004" y="21.685"/><use xlink:href="#1"/><use xlink:href="#2" y="2.171"/><use xlink:href="#3" y="4.342"/><use xlink:href="#4" y="6.513"/><use xlink:href="#3" y="8.684"/><use xlink:href="#5" y="13.026"/><use xlink:href="#6" y="15.197"/><use xlink:href="#7" y="17.368"/></svg><svg x="1800"><use xlink:href="#a"/><use xlink:href="#b" x="72.996" y="21.685"/><use xlink:href="#1"/><use xlink:href="#2" y="2.171"/><use xlink:href="#3" y="4.342"/><use xlink:href="#4" y="6.513"/><use xlink:href="#3" y="8.684"/><use xlink:href="#5" y="13.026"/><use xlink:href="#6" y="15.197"/><use xlink:href="#7" y="17.368"/><use xlink:href="#8" y="21.71"/></svg><svg x="1900"><use xlink:href="#a"/><use xlink:href="#b" x="-.004" y="23.856"/><use xlink:href="#1"/><use xlink:href="#2" y="2.171"/><use xlink:href="#3" y="4.342"/><use xlink:href="#4" y="6.513"/><use xlink:href="#3" y="8.684"/><use xlink:href="#5" y="13.026"/><use xlink:href="#6" y="15.197"/><use xlink:href="#7" y="17.368"/><use xlink:href="#8" y="21.71"/></svg><svg x="2000"><use xlink:href="#a"/><use xlink:href="#b" x="79.996" y="23.856"/><use xlink:href="#1"/><use xlink:href="#2" y="2.171"/><use xlink:href="#3" y="4.342"/><use xlink:href="#4" y="6.513"/><use xlink:href="#3" y="8.684"/><use xlink:href="#5" y="13.026"/><use xlink:href="#6" y="15.197"/><use xlink:href="#7" y="17.368"/><use xlink:href="#8" y="21.71"/><use xlink:href="#9" y="23.881"/></svg><svg x="2100"><use xlink:href="#a"/><use xlink:href="#b" x="-.004" y="26.027"/><use xlink:href="#1"/><use xlink:href="#2" y="2.171"/><use xlink:href="#3" y="4.342"/><use xlink:href="#4" y="6.513"/><use xlink:href="#3" y="8.684"/><use xlink:href="#5" y="13.026"/><use xlink:href="#6" y="15.197"/><use xlink:href="#7" y="17.368"/><use xlink:href="#8" y="21.71"/><use xlink:href="#9" y="23.881"/></svg><svg x="2200"><use xlink:href="#a"/><use xlink:href="#b" x="77.996" y="26.027"/><use xlink:href="#1"/><use xlink:href="#2" y="2.171"/><use xlink:href="#3" y="4.342"/><use xlink:href="#4" y="6.513"/><use xlink:href="#3" y="8.684"/><use xlink:href="#5" y="13.026"/><use xlink:href="#6" y="15.197"/><use xlink:href="#7" y="17.368"/><use xlink:href="#8" y="21.71"/><use xlink:href="#9" y="23.881"/><use xlink:href="#10" y="26.052"/></svg><svg x="2300"><use xlink:href="#a"/><use xlink:href="#b" x="-.004" y="28.198"/><use xlink:href="#1"/><use xlink:href="#2" y="2.171"/><use xlink:href="#3" y="4.342"/><use xlink:href="#4" y="6.513"/><use xlink:href="#3" y="8.684"/><use xlink:href="#5" y="13.026"/><use xlink:href="#6" y="15.197"/><use xlink:href="#7" y="17.368"/><use xlink:href="#8" y="21.71"/><use xlink:href="#9" y="23.881"/><use xlink:href="#10" y="26.052"/></svg><svg x="2400"><use xlink:href="#a"/><use xlink:href="#b" x="77.996" y="28.198"/><use xlink:href="#1"/><use xlink:href="#2" y="2.171"/><use xlink:href="#3" y="4.342"/><use xlink:href="#4" y="6.513"/><use xlink:href="#3" y="8.684"/><use xlink:href="#5" y="13.026"/><use xlink:href="#6" y="15.197"/><use xlink:href="#7" y="17.368"/><use xlink:href="#8" y="21.71"/><use xlink:href="#9" y="23.881"/><use xlink:href="#10" y="26.052"/><use xlink:href="#11" y="28.223"/></svg><svg x="2500"><use xlink:href="#a"/><use xlink:href="#b" x="-.004" y="30.369"/><use xlink:href="#1"/><use xlink:href="#2" y="2.171"/><use xlink:href="#3" y="4.342"/><use xlink:href="#4" y="6.513"/><use xlink:href="#3" y="8.684"/><use xlink:href="#5" y="13.026"/><use xlink:href="#6" y="15.197"/><use xlink:href="#7" y="17.368"/><use xlink:href="#8" y="21.71"/><use xlink:href="#9" y="23.881"/><use xlink:href="#10" y="26.052"/><use xlink:href="#11" y="28.223"/></svg><svg x="2600"><use xlink:href="#a"/><use xlink:href="#b" x="75.996" y="30.369"/><use xlink:href="#1"/><use xlink:href="#2" y="2.171"/><use xlink:href="#3" y="4.342"/><use xlink:href="#4" y="6.513"/><use xlink:href="#3" y="8.684"/><use xlink:href="#5" y="13.026"/><use xlink:href="#6" y="15.197"/><use xlink:href="#7" y="17.368"/><use xlink:href="#8" y="21.71"/><use xlink:href="#9" y="23.881"/><use xlink:href="#10" y="26.052"/><use xlink:href="#11" y="28.223"/><use xlink:href="#12" y="30.394"/></svg><svg x="2700"><use xlink:href="#a"/><use xlink:href="#b" x="-.004" y="32.54"/><use xlink:href="#1"/><use xlink:href="#2" y="2.171"/><use xlink:href="#3" y="4.342"/><use xlink:href="#4" y="6.513"/><use xlink:href="#3" y="8.684"/><use xlink:href="#5" y="13.026"/><use xlink:href="#6" y="15.197"/><use xlink:href="#7" y="17.368"/><use xlink:href="#8" y="21.71"/><use xlink:href="#9" y="23.881"/><use xlink:href="#10" y="26.052"/><use xlink:href="#11" y="28.223"/><use xlink:href="#12" y="30.394"/></svg><svg x="2800"><use xlink:href="#a"/><use xlink:href="#b" x="-.004" y="34.711"/><use xlink:href="#1"/><use xlink:href="#2" y="2.171"/><use xlink:href="#3" y="4.342"/><use xlink:href="#4" y="6.513"/><use xlink:href="#3" y="8.684"/><use xlink:href="#5" y="13.026"/><use xlink:href="#6" y="15.197"/><use xlink:href="#7" y="17.368"/><use xlink:href="#8" y="21.71"/><use xlink:href="#9" y="23.881"/><use xlink:href="#10" y="26.052"/><use xlink:href="#11" y="28.223"/><use xlink:href="#12" y="30.394"/></svg><svg x="2900"><use xlink:href="#a"/><use xlink:href="#b" x="79.996" y="34.711"/><use xlink:href="#1"/><use xlink:href="#2" y="2.171"/><use xlink:href="#3" y="4.342"/><use xlink:href="#4" y="6.513"/><use xlink:href="#3" y="8.684"/><use xlink:href="#5" y="13.026"/><use xlink:href="#6" y="15.197"/><use xlink:href="#7" y="17.368"/><use xlink:href="#8" y="21.71"/><use xlink:href="#9" y="23.881"/><use xlink:href="#10" y="26.052"/><use xlink:href="#11" y="28.223"/><use xlink:href="#12" y="30.394"/><use xlink:href="#3" y="34.736"/></svg><svg x="3000"><use xlink:href="#a"/><use xlink:href="#b" x="-.004" y="36.882"/><use xlink:href="#1"/><use xlink:href="#2" y="2.171"/><use xlink:href="#3" y="4.342"/><use xlink:href="#4" y="6.513"/><use xlink:href="#3" y="8.684"/><use xlink:href="#5" y="13.026"/><use xlink:href="#6" y="15.197"/><use xlink:href="#7" y="17.368"/><use xlink:href="#8" y="21.71"/><use xlink:href="#9" y="23.881"/><use xlink:href="#10" y="26.052"/><use xlink:href="#11" y="28.223"/><use xlink:href="#12" y="30.394"/><use xlink:href="#3" y="34.736"/></svg><svg x="3100"><use xlink:href="#a"/><use xlink:href="#b" x="52.996" y="36.882"/><use xlink:href="#1"/><use xlink:href="#2" y="2.171"/><use xlink:href="#3" y="4.342"/><use xlink:href="#4" y="6.513"/><use xlink:href="#3" y="8.684"/><use xlink:href="#5" y="13.026"/><use xlink:href="#6" y="15.197"/><use xlink:href="#7" y="17.368"/><use xlink:href="#8" y="21.71"/><use xlink:href="#9" y="23.881"/><use xlink:href="#10" y="26.052"/><use xlink:href="#11" y="28.223"/><use xlink:href="#12" y="30.394"/><use xlink:href="#3" y="34.736"/><use xlink:href="#13" y="36.907"/></svg><svg x="3200"><use xlink:href="#a"/><use xlink:href="#b" x="-.004" y="39.053"/><use xlink:href="#1"/><use xlink:href="#2" y="2.171"/><use xlink:href="#3" y="4.342"/><use xlink:href="#4" y="6.513"/><use xlink:href="#3" y="8.684"/><use xlink:href="#5" y="13.026"/><use xlink:href="#6" y="15.197"/><use xlink:href="#7" y="17.368"/><use xlink:href="#8" y="21.71"/><use xlink:href="#9" y="23.881"/><use xlink:href="#10" y="26.052"/><use xlink:href="#11" y="28.223"/><use xlink:href="#12" y="30.394"/><use xlink:href="#3" y="34.736"/><use xlink:href="#13" y="36.907"/></svg><svg x="3300"><use xlink:href="#a"/><use xlink:href="#b" x="55.996" y="39.053"/><use xlink:href="#1"/><use xlink:href="#2" y="2.171"/><use xlink:href="#3" y="4.342"/><use xlink:href="#4" y="6.513"/><use xlink:href="#3" y="8.684"/><use xlink:href="#5" y="13.026"/><use xlink:href="#6" y="15.197"/><use xlink:href="#7" y="17.368"/><use xlink:href="#8" y="21.71"/><use xlink:href="#9" y="23.881"/><use xlink:href="#10" y="26.052"/><use xlink:href="#11" y="28.223"/><use xlink:href="#12" y="30.394"/><use xlink:href="#3" y="34.736"/><use xlink:href="#13" y="36.907"/><text y="40.748" class="f">========================================================</text></svg><svg x="3400"><use xlink:href="#a"/><use xlink:href="#b" x="79.996" y="39.053"/><use xlink:href="#1"/><use xlink:href="#2" y="2.171"/><use xlink:href="#3" y="4.342"/><use xlink:href="#4" y="6.513"/><use xlink:href="#3" y="8.684"/><use xlink:href="#5" y="13.026"/><use xlink:href="#6" y="15.197"/><use xlink:href="#7" y="17.368"/><use xlink:href="#8" y="21.71"/><use xlink:href="#9" y="23.881"/><use xlink:href="#10" y="26.052"/><use xlink:href="#11" y="28.223"/><use xlink:href="#12" y="30.394"/><use xlink:href="#3" y="34.736"/><use xlink:href="#13" y="36.907"/><use xlink:href="#3" y="39.078"/></svg><svg x="3500"><use xlink:href="#a"/><use xlink:href="#b" x="-.004" y="41.224"/><use xlink:href="#1"/><use xlink:href="#2" y="2.171"/><use xlink:href="#3" y="4.342"/><use xlink:href="#4" y="6.513"/><use xlink:href="#3" y="8.684"/><use xlink:href="#5" y="13.026"/><use xlink:href="#6" y="15.197"/><use xlink:href="#7" y="17.368"/><use xlink:href="#8" y="21.71"/><use xlink:href="#9" y="23.881"/><use xlink:href="#10" y="26.052"/><use xlink:href="#11" y="28.223"/><use xlink:href="#12" y="30.394"/><use xlink:href="#3" y="34.736"/><use xlink:href="#13" y="36.907"/><use xlink:href="#3" y="39.078"/></svg><svg x="3600"><use xlink:href="#a"/><use xlink:href="#b" x="-.004" y="43.395"/><use xlink:href="#1"/><use xlink:href="#2" y="2.171"/><use xlink:href="#3" y="4.342"/><use xlink:href="#4" y="6.513"/><use xlink:href="#3" y="8.684"/><use xlink:href="#5" y="13.026"/><use xlink:href="#6" y="15.197"/><use xlink:href="#7" y="17.368"/><use xlink:href="#8" y="21.71"/><use xlink:href="#9" y="23.881"/><use xlink:href="#10" y="26.052"/><use xlink:href="#11" y="28.223"/><use xlink:href="#12" y="30.394"/><use xlink:href="#3" y="34.736"/><use xlink:href="#13" y="36.907"/><use xlink:href="#3" y="39.078"/></svg><svg x="3700"><use xlink:href="#a"/><use xlink:href="#b" x="31.996" y="43.395"/><use xlink:href="#1"/><use xlink:href="#2" y="2.171"/><use xlink:href="#3" y="4.342"/><use xlink:href="#4" y="6.513"/><use xlink:href="#3" y="8.684"/><use xlink:href="#5" y="13.026"/><use xlink:href="#6" y="15.197"/><use xlink:href="#7" y="17.368"/><use xlink:href="#8" y="21.71"/><use xlink:href="#9" y="23.881"/><use xlink:href="#10" y="26.052"/><use xlink:href="#11" y="28.223"/><use xlink:href="#12" y="30.394"/><use xlink:href="#3" y="34.736"/><use xlink:href="#13" y="36.907"/><use xlink:href="#3" y="39.078"/><use xlink:href="#14" y="43.42"/></svg><svg x="3800"><use xlink:href="#a"/><use xlink:href="#b" x="-.004" y="45.566"/><use xlink:href="#1"/><use xlink:href="#2" y="2.171"/><use xlink:href="#3" y="4.342"/><use xlink:href="#4" y="6.513"/><use xlink:href="#3" y="8.684"/><use xlink:href="#5" y="13.026"/><use xlink:href="#6" y="15.197"/><use xlink:href="#7" y="17.368"/><use xlink:href="#8" y="21.71"/><use xlink:href="#9" y="23.881"/><use xlink:href="#10" y="26.052"/><use xlink:href="#11" y="28.223"/><use xlink:href="#12" y="30.394"/><use xlink:href="#3" y="34.736"/><use xlink:href="#13" y="36.907"/><use xlink:href="#3" y="39.078"/><use xlink:href="#14" y="43.42"/></svg><svg x="3900"><use xlink:href="#a"/><use xlink:href="#b" x="31.996" y="45.566"/><use xlink:href="#1"/><use xlink:href="#2" y="2.171"/><use xlink:href="#3" y="4.342"/><use xlink:href="#4" y="6.513"/><use xlink:href="#3" y="8.684"/><use xlink:href="#5" y="13.026"/><use xlink:href="#6" y="15.197"/><use xlink:href="#7" y="17.368"/><use xlink:href="#8" y="21.71"/><use xlink:href="#9" y="23.881"/><use xlink:href="#10" y="26.052"/><use xlink:href="#11" y="28.223"/><use xlink:href="#12" y="30.394"/><use xlink:href="#3" y="34.736"/><use xlink:href="#13" y="36.907"/><use xlink:href="#3" y="39.078"/><use xlink:href="#14" y="43.42"/><use xlink:href="#15" y="45.591"/></svg><svg x="4000"><use xlink:href="#a"/><use xlink:href="#b" x="-.004" y="47.737"/><use xlink:href="#1"/><use xlink:href="#2" y="2.171"/><use xlink:href="#3" y="4.342"/><use xlink:href="#4" y="6.513"/><use xlink:href="#3" y="8.684"/><use xlink:href="#5" y="13.026"/><use xlink:href="#6" y="15.197"/><use xlink:href="#7" y="17.368"/><use xlink:href="#8" y="21.71"/><use xlink:href="#9" y="23.881"/><use xlink:href="#10" y="26.052"/><use xlink:href="#11" y="28.223"/><use xlink:href="#12" y="30.394"/><use xlink:href="#3" y="34.736"/><use xlink:href="#13" y="36.907"/><use xlink:href="#3" y="39.078"/><use xlink:href="#14" y="43.42"/><use xlink:href="#15" y="45.591"/></svg><svg x="4100"><use xlink:href="#a"/><use xlink:href="#b" x="31.996" y="47.737"/><use xlink:href="#1"/><use xlink:href="#2" y="2.171"/><use xlink:href="#3" y="4.342"/><use xlink:href="#4" y="6.513"/><use xlink:href="#3" y="8.684"/><use xlink:href="#5" y="13.026"/><use xlink:href="#6" y="15.197"/><use xlink:href="#7" y="17.368"/><use xlink:href="#8" y="21.71"/><use xlink:href="#9" y="23.881"/><use xlink:href="#10" y="26.052"/><use xlink:href="#11" y="28.223"/><use xlink:href="#12" y="30.394"/><use xlink:href="#3" y="34.736"/><use xlink:href="#13" y="36.907"/><use xlink:href="#3" y="39.078"/><use xlink:href="#14" y="43.42"/><use xlink:href="#15" y="45.591"/><use xlink:href="#16" y="47.762"/></svg><svg x="4200"><use xlink:href="#a"/><use xlink:href="#b" x="-.004" y="49.908"/><use xlink:href="#1"/><use xlink:href="#2" y="2.171"/><use xlink:href="#3" y="4.342"/><use xlink:href="#4" y="6.513"/><use xlink:href="#3" y="8.684"/><use xlink:href="#5" y="13.026"/><use xlink:href="#6" y="15.197"/><use xlink:href="#7" y="17.368"/><use xlink:href="#8" y="21.71"/><use xlink:href="#9" y="23.881"/><use xlink:href="#10" y="26.052"/><use xlink:href="#11" y="28.223"/><use xlink:href="#12" y="30.394"/><use xlink:href="#3" y="34.736"/><use xlink:href="#13" y="36.907"/><use xlink:href="#3" y="39.078"/><use xlink:href="#14" y="43.42"/><use xlink:href="#15" y="45.591"/><use xlink:href="#16" y="47.762"/></svg><svg x="4300"><use xlink:href="#a"/><use xlink:href="#b" x="30.996" y="49.908"/><use xlink:href="#1"/><use xlink:href="#2" y="2.171"/><use xlink:href="#3" y="4.342"/><use xlink:href="#4" y="6.513"/><use xlink:href="#3" y="8.684"/><use xlink:href="#5" y="13.026"/><use xlink:href="#6" y="15.197"/><use xlink:href="#7" y="17.368"/><use xlink:href="#8" y="21.71"/><use xlink:href="#9" y="23.881"/><use xlink:href="#10" y="26.052"/><use xlink:href="#11" y="28.223"/><use xlink:href="#12" y="30.394"/><use xlink:href="#3" y="34.736"/><use xlink:href="#13" y="36.907"/><use xlink:href="#3" y="39.078"/><use xlink:href="#14" y="43.42"/><use xlink:href="#15" y="45.591"/><use xlink:href="#16" y="47.762"/><use xlink:href="#17" y="49.933"/></svg><svg x="4400"><use xlink:href="#a"/><use xlink:href="#b" x="-.004" y="52.079"/><use xlink:href="#1"/><use xlink:href="#2" y="2.171"/><use xlink:href="#3" y="4.342"/><use xlink:href="#4" y="6.513"/><use xlink:href="#3" y="8.684"/><use xlink:href="#5" y="13.026"/><use xlink:href="#6" y="15.197"/><use xlink:href="#7" y="17.368"/><use xlink:href="#8" y="21.71"/><use xlink:href="#9" y="23.881"/><use xlink:href="#10" y="26.052"/><use xlink:href="#11" y="28.223"/><use xlink:href="#12" y="30.394"/><use xlink:href="#3" y="34.736"/><use xlink:href="#13" y="36.907"/><use xlink:href="#3" y="39.078"/><use xlink:href="#14" y="43.42"/><use xlink:href="#15" y="45.591"/><use xlink:href="#16" y="47.762"/><use xlink:href="#17" y="49.933"/></svg><svg x="4500"><use xlink:href="#a"/><use xlink:href="#b" x="30.996" y="52.079"/><use xlink:href="#1"/><use xlink:href="#2" y="2.171"/><use xlink:href="#3" y="4.342"/><use xlink:href="#4" y="6.513"/><use xlink:href="#3" y="8.684"/><use xlink:href="#5" y="13.026"/><use xlink:href="#6" y="15.197"/><use xlink:href="#7" y="17.368"/><use xlink:href="#8" y="21.71"/><use xlink:href="#9" y="23.881"/><use xlink:href="#10" y="26.052"/><use xlink:href="#11" y="28.223"/><use xlink:href="#12" y="30.394"/><use xlink:href="#3" y="34.736"/><use xlink:href="#13" y="36.907"/><use xlink:href="#3" y="39.078"/><use xlink:href="#14" y="43.42"/><use xlink:href="#15" y="45.591"/><use xlink:href="#16" y="47.762"/><use xlink:href="#17" y="49.933"/><use xlink:href="#18" y="52.104"/></svg><svg x="4600"><use xlink:href="#a"/><use xlink:href="#b" x="-.004" y="54.25"/><use xlink:href="#1"/><use xlink:href="#2" y="2.171"/><use xlink:href="#3" y="4.342"/><use xlink:href="#4" y="6.513"/><use xlink:href="#3" y="8.684"/><use xlink:href="#5" y="13.026"/><use xlink:href="#6" y="15.197"/><use xlink:href="#7" y="17.368"/><use xlink:href="#8" y="21.71"/><use xlink:href="#9" y="23.881"/><use xlink:href="#10" y="26.052"/><use xlink:href="#11" y="28.223"/><use xlink:href="#12" y="30.394"/><use xlink:href="#3" y="34.736"/><use xlink:href="#13" y="36.907"/><use xlink:href="#3" y="39.078"/><use xlink:href="#14" y="43.42"/><use xlink:href="#15" y="45.591"/><use xlink:href="#16" y="47.762"/><use xlink:href="#17" y="49.933"/><use xlink:href="#18" y="52.104"/></svg><svg x="4700"><use xlink:href="#a"/><use xlink:href="#b" x="34.996" y="54.25"/><use xlink:href="#1"/><use xlink:href="#2" y="2.171"/><use xlink:href="#3" y="4.342"/><use xlink:href="#4" y="6.513"/><use xlink:href="#3" y="8.684"/><use xlink:href="#5" y="13.026"/><use xlink:href="#6" y="15.197"/><use xlink:href="#7" y="17.368"/><use xlink:href="#8" y="21.71"/><use xlink:href="#9" y="23.881"/><use xlink:href="#10" y="26.052"/><use xlink:href="#11" y="28.223"/><use xlink:href="#12" y="30.394"/><use xlink:href="#3" y="34.736"/><use xlink:href="#13" y="36.907"/><use xlink:href="#3" y="39.078"/><use xlink:href="#14" y="43.42"/><use xlink:href="#15" y="45.591"/><use xlink:href="#16" y="47.762"/><use xlink:href="#17" y="49.933"/><use xlink:href="#18" y="52.104"/><use xlink:href="#19" y="54.275"/></svg><svg x="4800"><use xlink:href="#a"/><use xlink:href="#b" x="-.004" y="56.421"/><use xlink:href="#1"/><use xlink:href="#2" y="2.171"/><use xlink:href="#3" y="4.342"/><use xlink:href="#4" y="6.513"/><use xlink:href="#3" y="8.684"/><use xlink:href="#5" y="13.026"/><use xlink:href="#6" y="15.197"/><use xlink:href="#7" y="17.368"/><use xlink:href="#8" y="21.71"/><use xlink:href="#9" y="23.881"/><use xlink:href="#10" y="26.052"/><use xlink:href="#11" y="28.223"/><use xlink:href="#12" y="30.394"/><use xlink:href="#3" y="34.736"/><use xlink:href="#13" y="36.907"/><use xlink:href="#3" y="39.078"/><use xlink:href="#14" y="43.42"/><use xlink:href="#15" y="45.591"/><use xlink:href="#16" y="47.762"/><use xlink:href="#17" y="49.933"/><use xlink:href="#18" y="52.104"/><use xlink:href="#19" y="54.275"/></svg><svg x="4900"><use xlink:href="#a"/><use xlink:href="#b" x="17.996" y="56.421"/><use xlink:href="#1"/><use xlink:href="#2" y="2.171"/><use xlink:href="#3" y="4.342"/><use xlink:href="#4" y="6.513"/><use xlink:href="#3" y="8.684"/><use xlink:href="#5" y="13.026"/><use xlink:href="#6" y="15.197"/><use xlink:href="#7" y="17.368"/><use xlink:href="#8" y="21.71"/><use xlink:href="#9" y="23.881"/><use xlink:href="#10" y="26.052"/><use xlink:href="#11" y="28.223"/><use xlink:href="#12" y="30.394"/><use xlink:href="#3" y="34.736"/><use xlink:href="#13" y="36.907"/><use xlink:href="#3" y="39.078"/><use xlink:href="#14" y="43.42"/><use xlink:href="#15" y="45.591"/><use xlink:href="#16" y="47.762"/><use xlink:href="#17" y="49.933"/><use xlink:href="#18" y="52.104"/><use xlink:href="#19" y="54.275"/><use xlink:href="#20" y="56.446"/></svg><svg x="5000"><use xlink:href="#a"/><use xlink:href="#b" x="-.004" y="58.592"/><use xlink:href="#1"/><use xlink:href="#2" y="2.171"/><use xlink:href="#3" y="4.342"/><use xlink:href="#4" y="6.513"/><use xlink:href="#3" y="8.684"/><use xlink:href="#5" y="13.026"/><use xlink:href="#6" y="15.197"/><use xlink:href="#7" y="17.368"/><use xlink:href="#8" y="21.71"/><use xlink:href="#9" y="23.881"/><use xlink:href="#10" y="26.052"/><use xlink:href="#11" y="28.223"/><use xlink:href="#12" y="30.394"/><use xlink:href="#3" y="34.736"/><use xlink:href="#13" y="36.907"/><use xlink:href="#3" y="39.078"/><use xlink:href="#14" y="43.42"/><use xlink:href="#15" y="45.591"/><use xlink:href="#16" y="47.762"/><use xlink:href="#17" y="49.933"/><use xlink:href="#18" y="52.104"/><use xlink:href="#19" y="54.275"/><use xlink:href="#20" y="56.446"/></svg><svg x="5100"><use xlink:href="#a"/><use xlink:href="#b" x="-.004" y="62.934"/><use xlink:href="#1"/><use xlink:href="#2" y="2.171"/><use xlink:href="#3" y="4.342"/><use xlink:href="#4" y="6.513"/><use xlink:href="#3" y="8.684"/><use xlink:href="#5" y="13.026"/><use xlink:href="#6" y="15.197"/><use xlink:href="#7" y="17.368"/><use xlink:href="#8" y="21.71"/><use xlink:href="#9" y="23.881"/><use xlink:href="#10" y="26.052"/><use xlink:href="#11" y="28.223"/><use xlink:href="#12" y="30.394"/><use xlink:href="#3" y="34.736"/><use xlink:href="#13" y="36.907"/><use xlink:href="#3" y="39.078"/><use xlink:href="#14" y="43.42"/><use xlink:href="#15" y="45.591"/><use xlink:href="#16" y="47.762"/><use xlink:href="#17" y="49.933"/><use xlink:href="#18" y="52.104"/><use xlink:href="#19" y="54.275"/><use xlink:href="#20" y="56.446"/><use xlink:href="#21" y="60.788"/></svg><svg x="5200"><use xlink:href="#a"/><use xlink:href="#b" x="-.004" y="65.105"/><use xlink:href="#3"/><use xlink:href="#4" y="2.171"/><use xlink:href="#3" y="4.342"/><use xlink:href="#5" y="8.684"/><use xlink:href="#6" y="10.855"/><use xlink:href="#7" y="13.026"/><use xlink:href="#8" y="17.368"/><use xlink:href="#9" y="19.539"/><use xlink:href="#10" y="21.71"/><use xlink:href="#11" y="23.881"/><use xlink:href="#12" y="26.052"/><use xlink:href="#3" y="30.394"/><use xlink:href="#13" y="32.565"/><use xlink:href="#3" y="34.736"/><use xlink:href="#14" y="39.078"/><use xlink:href="#15" y="41.249"/><use xlink:href="#16" y="43.42"/><use xlink:href="#17" y="45.591"/><use xlink:href="#18" y="47.762"/><use xlink:href="#19" y="49.933"/><use xlink:href="#20" y="52.104"/><use xlink:href="#21" y="56.446"/><use xlink:href="#22" y="58.617"/><use xlink:href="#3" y="60.788"/></svg><svg x="5300"><use xlink:href="#a"/><use xlink:href="#b" x="74.996" y="65.105"/><use xlink:href="#5"/><use xlink:href="#6" y="2.171"/><use xlink:href="#7" y="4.342"/><use xlink:href="#8" y="8.684"/><use xlink:href="#9" y="10.855"/><use xlink:href="#10" y="13.026"/><use xlink:href="#11" y="15.197"/><use xlink:href="#12" y="17.368"/><use xlink:href="#3" y="21.71"/><use xlink:href="#13" y="23.881"/><use xlink:href="#3" y="26.052"/><use xlink:href="#14" y="30.394"/><use xlink:href="#15" y="32.565"/><use xlink:href="#16" y="34.736"/><use xlink:href="#17" y="36.907"/><use xlink:href="#18" y="39.078"/><use xlink:href="#19" y="41.249"/><use xlink:href="#20" y="43.42"/><use xlink:href="#21" y="47.762"/><use xlink:href="#22" y="49.933"/><use xlink:href="#3" y="52.104"/><use xlink:href="#23" y="56.446"/><use xlink:href="#24" y="58.617"/><use xlink:href="#25" y="60.788"/><use xlink:href="#26" y="65.13"/></svg><svg x="5400"><use xlink:href="#a"/><use xlink:href="#b" x="-.004" y="65.105"/><use xlink:href="#10"/><use xlink:href="#11" y="2.171"/><use xlink:href="#12" y="4.342"/><use xlink:href="#3" y="8.684"/><use xlink:href="#13" y="10.855"/><use xlink:href="#3" y="13.026"/><use xlink:href="#14" y="17.368"/><use xlink:href="#15" y="19.539"/><use xlink:href="#16" y="21.71"/><use xlink:href="#17" y="23.881"/><use xlink:href="#18" y="26.052"/><use xlink:href="#19" y="28.223"/><use xlink:href="#20" y="30.394"/><use xlink:href="#21" y="34.736"/><use xlink:href="#22" y="36.907"/><use xlink:href="#3" y="39.078"/><use xlink:href="#23" y="43.42"/><use xlink:href="#24" y="45.591"/><use xlink:href="#25" y="47.762"/><use xlink:href="#26" y="52.104"/><use xlink:href="#27" y="54.275"/><use xlink:href="#28" y="56.446"/><use xlink:href="#29" y="58.617"/><use xlink:href="#30" y="60.788"/><use xlink:href="#31" y="62.959"/></svg><svg x="5500"><use xlink:href="#a"/><use xlink:href="#b" x="-.004" y="65.105"/><use xlink:href="#12"/><use xlink:href="#3" y="4.342"/><use xlink:href="#13" y="6.513"/><use xlink:href="#3" y="8.684"/><use xlink:href="#14" y="13.026"/><use xlink:href="#15" y="15.197"/><use xlink:href="#16" y="17.368"/><use xlink:href="#17" y="19.539"/><use xlink:href="#18" y="21.71"/><use xlink:href="#19" y="23.881"/><use xlink:href="#20" y="26.052"/><use xlink:href="#21" y="30.394"/><use xlink:href="#22" y="32.565"/><use xlink:href="#3" y="34.736"/><use xlink:href="#23" y="39.078"/><use xlink:href="#24" y="41.249"/><use xlink:href="#25" y="43.42"/><use xlink:href="#26" y="47.762"/><use xlink:href="#27" y="49.933"/><use xlink:href="#28" y="52.104"/><use xlink:href="#29" y="54.275"/><use xlink:href="#30" y="56.446"/><use xlink:href="#31" y="58.617"/><use xlink:href="#32" y="60.788"/></svg><svg x="5600"><use xlink:href="#a"/><use xlink:href="#b" x="-.004" y="65.105"/><use xlink:href="#3" y="2.171"/><use xlink:href="#13" y="4.342"/><use xlink:href="#3" y="6.513"/><use xlink:href="#14" y="10.855"/><use xlink:href="#15" y="13.026"/><use xlink:href="#16" y="15.197"/><use xlink:href="#17" y="17.368"/><use xlink:href="#18" y="19.539"/><use xlink:href="#19" y="21.71"/><use xlink:href="#20" y="23.881"/><use xlink:href="#21" y="28.223"/><use xlink:href="#22" y="30.394"/><use xlink:href="#3" y="32.565"/><use xlink:href="#23" y="36.907"/><use xlink:href="#24" y="39.078"/><use xlink:href="#25" y="41.249"/><use xlink:href="#26" y="45.591"/><use xlink:href="#27" y="47.762"/><use xlink:href="#28" y="49.933"/><use xlink:href="#29" y="52.104"/><use xlink:href="#30" y="54.275"/><use xlink:href="#31" y="56.446"/><use xlink:href="#32" y="58.617"/></svg><svg x="5700"><use xlink:href="#a"/><use xlink:href="#b" x="-.004" y="65.105"/><use xlink:href="#3"/><use xlink:href="#13" y="2.171"/><use xlink:href="#3" y="4.342"/><use xlink:href="#14" y="8.684"/><use xlink:href="#15" y="10.855"/><use xlink:href="#16" y="13.026"/><use xlink:href="#17" y="15.197"/><use xlink:href="#18" y="17.368"/><use xlink:href="#19" y="19.539"/><use xlink:href="#20" y="21.71"/><use xlink:href="#21" y="26.052"/><use xlink:href="#22" y="28.223"/><use xlink:href="#3" y="30.394"/><use xlink:href="#23" y="34.736"/><use xlink:href="#24" y="36.907"/><use xlink:href="#25" y="39.078"/><use xlink:href="#26" y="43.42"/><use xlink:href="#27" y="45.591"/><use xlink:href="#28" y="47.762"/><use xlink:href="#29" y="49.933"/><use xlink:href="#30" y="52.104"/><use xlink:href="#31" y="54.275"/><use xlink:href="#32" y="56.446"/><use xlink:href="#33" y="62.959"/></svg><svg x="5800"><use xlink:href="#a"/><use xlink:href="#b" x="1.996" y="65.105"/><use xlink:href="#14"/><use xlink:href="#15" y="2.171"/><use xlink:href="#16" y="4.342"/><use xlink:href="#17" y="6.513"/><use xlink:href="#18" y="8.684"/><use xlink:href="#19" y="10.855"/><use xlink:href="#20" y="13.026"/><use xlink:href="#21" y="17.368"/><use xlink:href="#22" y="19.539"/><use xlink:href="#3" y="21.71"/><use xlink:href="#23" y="26.052"/><use xlink:href="#24" y="28.223"/><use xlink:href="#25" y="30.394"/><use xlink:href="#26" y="34.736"/><use xlink:href="#27" y="36.907"/><use xlink:href="#28" y="39.078"/><use xlink:href="#29" y="41.249"/><use xlink:href="#30" y="43.42"/><use xlink:href="#31" y="45.591"/><use xlink:href="#32" y="47.762"/><use xlink:href="#33" y="54.275"/><use xlink:href="#34" y="56.446"/><use xlink:href="#35" y="58.617"/><use xlink:href="#36" y="60.788"/><use xlink:href="#37" y="65.13"/></svg><svg x="5900"><use xlink:href="#a"/><use xlink:href="#b" x="-.004" y="65.105"/><use xlink:href="#15"/><use xlink:href="#16" y="2.171"/><use xlink:href="#17" y="4.342"/><use xlink:href="#18" y="6.513"/><use xlink:href="#19" y="8.684"/><use xlink:href="#20" y="10.855"/><use xlink:href="#21" y="15.197"/><use xlink:href="#22" y="17.368"/><use xlink:href="#3" y="19.539"/><use xlink:href="#23" y="23.881"/><use xlink:href="#24" y="26.052"/><use xlink:href="#25" y="28.223"/><use xlink:href="#26" y="32.565"/><use xlink:href="#27" y="34.736"/><use xlink:href="#28" y="36.907"/><use xlink:href="#29" y="39.078"/><use xlink:href="#30" y="41.249"/><use xlink:href="#31" y="43.42"/><use xlink:href="#32" y="45.591"/><use xlink:href="#33" y="52.104"/><use xlink:href="#34" y="54.275"/><use xlink:href="#35" y="56.446"/><use xlink:href="#36" y="58.617"/><use xlink:href="#37" y="62.959"/></svg></svg></g></g></svg></svg>